<svg id="レイヤー_1" data-name="レイヤー 1" xmlns="http://www.w3.org/2000/svg" viewBox="0 0 141.732 215.433"><defs><style>.cls-1{fill:#fff;}</style></defs><path class="cls-1" d="M35.848,21.8a1.866,1.866,0,0,1,.1-.172.331.331,0,0,1,.183-.129,2.113,2.113,0,0,1,.344-.076,4.41,4.41,0,0,1,.6-.032c.115,0,.266,0,.452-.011l.6-.022c.215-.007.433-.017.656-.032s.427-.028.613-.043a1.853,1.853,0,0,1,.044.345c0,.23-.073.352-.215.366a2.634,2.634,0,0,0-1.034.291.568.568,0,0,0-.257.485c0,.015.01.205.032.572s.053.977.1,1.832.1,1.993.162,3.416.14,3.19.226,5.3a.76.76,0,0,0,.279.6,2.665,2.665,0,0,0,1.055.323.228.228,0,0,1,.161.119.458.458,0,0,1,.054.226,1.818,1.818,0,0,1-.043.345q-.753-.043-1.367-.075c-.408-.022-.785-.033-1.129-.033-.144,0-.323,0-.538.011l-.677.022c-.237.007-.471.018-.7.032s-.431.029-.6.043a1.818,1.818,0,0,1-.043-.345c0-.23.072-.345.215-.345a4.591,4.591,0,0,0,1.173-.344.611.611,0,0,0,.312-.582c0-.044-.011-.309-.032-.8s-.051-1.085-.086-1.789-.072-1.465-.108-2.284-.072-1.592-.108-2.317-.067-1.351-.1-1.876-.042-.843-.042-.958l-4.712,11.4a1.564,1.564,0,0,1-.162.291.245.245,0,0,1-.205.1.541.541,0,0,1-.193-.021L25.583,23.524c-.014.144-.031.492-.053,1.045s-.051,1.211-.086,1.972-.076,1.567-.118,2.414-.083,1.631-.118,2.349-.065,1.322-.087,1.811-.032.747-.032.776q0,.667,1.463.926c.144.015.215.13.215.345a1.818,1.818,0,0,1-.043.345q-.581-.043-1.141-.075c-.373-.022-.7-.033-.989-.033q-.345,0-.925.033c-.387.021-.754.046-1.1.075a1.818,1.818,0,0,1-.043-.345c0-.2.072-.316.215-.345a2.97,2.97,0,0,0,.936-.312.763.763,0,0,0,.4-.614c0-.13.015-.492.044-1.089s.061-1.3.1-2.123.076-1.688.119-2.608.082-1.771.118-2.554.065-1.429.087-1.94.032-.772.032-.786a.552.552,0,0,0-.269-.507,3.354,3.354,0,0,0-1.022-.291c-.144-.014-.215-.136-.215-.366a1.908,1.908,0,0,1,.042-.345c.187.015.4.029.635.043s.473.025.71.032l.678.022c.215.008.388.011.516.011a4.37,4.37,0,0,1,.6.032,2.128,2.128,0,0,1,.345.076.327.327,0,0,1,.183.129c.036.057.068.115.1.172L31.48,32.554Z"/><path class="cls-1" d="M55.863,33.4a.446.446,0,0,1,.321-.151q.215,0,.408.367a6.279,6.279,0,0,1-.646.754,4.151,4.151,0,0,1-.871.657,4.783,4.783,0,0,1-1.151.464,5.823,5.823,0,0,1-1.486.172,4.779,4.779,0,0,1-1.634-.28,3.739,3.739,0,0,1-1.367-.862,4.286,4.286,0,0,1-.947-1.444,5.3,5.3,0,0,1-.355-2.026,4.847,4.847,0,0,1,.42-2.026,5.213,5.213,0,0,1,1.087-1.585,5.083,5.083,0,0,1,1.474-1.023,3.766,3.766,0,0,1,1.559-.367,3.481,3.481,0,0,1,2.916,1.164,4.774,4.774,0,0,1,.914,3.039.113.113,0,0,1-.128.129l-6.22.281a4.907,4.907,0,0,0,.236,1.551,3.78,3.78,0,0,0,.665,1.229,3.034,3.034,0,0,0,1.04.808,3.183,3.183,0,0,0,1.384.291,2.871,2.871,0,0,0,1.319-.323A3.471,3.471,0,0,0,55.863,33.4Zm-3.478-6.574a1.932,1.932,0,0,0-1.67.841,3.693,3.693,0,0,0-.6,2.2l4.046-.194q.322,0,.322-.28a3.147,3.147,0,0,0-.129-.862,2.8,2.8,0,0,0-.385-.83,2.189,2.189,0,0,0-.653-.625A1.722,1.722,0,0,0,52.385,26.821Z"/><path class="cls-1" d="M66.716,35.4q-.371,0-.751.011t-.7.033q-.323.021-.56.043c-.157.014-.258.021-.3.021,0-.014-.008-.064-.022-.151a1.2,1.2,0,0,1-.021-.194.233.233,0,0,1,.193-.258,4.392,4.392,0,0,0,.9-.259.513.513,0,0,0,.344-.5V28.287a1.487,1.487,0,0,0-.226-.927,1.417,1.417,0,0,0-.979-.345.284.284,0,0,1-.28-.3,1.16,1.16,0,0,1,.044-.28c.186,0,.448-.01.785-.032s.613-.047.83-.076q.5-.085.892-.183a2.738,2.738,0,0,1,.567-.1c.2,0,.3.108.3.324a4.872,4.872,0,0,1-.065.722,7.61,7.61,0,0,0-.065,1.11v5.948a.513.513,0,0,0,.334.5,4.138,4.138,0,0,0,.936.259.23.23,0,0,1,.172.258c0,.043,0,.108-.01.194a.32.32,0,0,1-.033.151c-.043,0-.14-.007-.29-.021s-.334-.029-.549-.043-.45-.026-.7-.033S66.963,35.4,66.716,35.4ZM65.457,22.446a1.262,1.262,0,0,1,.355-.9,1.177,1.177,0,0,1,.892-.377,1.121,1.121,0,0,1,.862.377,1.286,1.286,0,0,1,.344.9,1.224,1.224,0,0,1-.344.9,1.169,1.169,0,0,1-.862.345,1.23,1.23,0,0,1-.892-.345A1.2,1.2,0,0,1,65.457,22.446Z"/><path class="cls-1" d="M82.435,28.7a.311.311,0,0,1-.345-.237,1.807,1.807,0,0,0-.7-1.26,2.351,2.351,0,0,0-1.367-.378,1.819,1.819,0,0,0-1.107.356,1.149,1.149,0,0,0-.484.98,1.184,1.184,0,0,0,.441.938,4.861,4.861,0,0,0,1.6.744,10.027,10.027,0,0,1,1.152.431,3.55,3.55,0,0,1,.9.571,2.37,2.37,0,0,1,.592.819,2.835,2.835,0,0,1,.215,1.153,2.913,2.913,0,0,1-.2,1.078,2.446,2.446,0,0,1-.624.905,3.156,3.156,0,0,1-1.054.625,4.346,4.346,0,0,1-1.517.237A8.3,8.3,0,0,1,78.4,35.5a5.02,5.02,0,0,1-1.538-.549q-.043-.561-.076-1.175t-.032-1.239h.215a.818.818,0,0,1,.366.075.307.307,0,0,1,.173.248,2.139,2.139,0,0,0,.7,1.455,2.472,2.472,0,0,0,1.71.55,2.05,2.05,0,0,0,1.356-.4,1.347,1.347,0,0,0,.473-1.089,1.262,1.262,0,0,0-.516-1.088,5.138,5.138,0,0,0-1.528-.679,5.449,5.449,0,0,1-1.991-1.013,2.291,2.291,0,0,1-.72-1.832,2.622,2.622,0,0,1,.817-1.918,2.867,2.867,0,0,1,.947-.582A3.442,3.442,0,0,1,80,26.045a5.686,5.686,0,0,1,1.624.227,5.277,5.277,0,0,1,1.194.485c.014.115.028.255.043.42s.025.338.032.517.014.36.022.539.011.341.011.485Z"/><path class="cls-1" d="M91.279,30.852a4.732,4.732,0,0,1,.376-1.875,4.747,4.747,0,0,1,2.54-2.554,4.677,4.677,0,0,1,1.882-.378,5.149,5.149,0,0,1,1.938.356,4.558,4.558,0,0,1,1.516.981,4.344,4.344,0,0,1,.99,1.519,5.239,5.239,0,0,1,.355,1.951,4.7,4.7,0,0,1-.377,1.885,4.784,4.784,0,0,1-2.539,2.544,4.7,4.7,0,0,1-1.883.377,5.154,5.154,0,0,1-1.936-.355,4.594,4.594,0,0,1-1.517-.981,4.376,4.376,0,0,1-.99-1.509A5.23,5.23,0,0,1,91.279,30.852Zm2.023-.711a8.075,8.075,0,0,0,.172,1.638A5.756,5.756,0,0,0,94,33.3a3.435,3.435,0,0,0,.914,1.121,2.118,2.118,0,0,0,1.356.442,2.285,2.285,0,0,0,1.9-.862,3.485,3.485,0,0,0,.678-2.22,9.159,9.159,0,0,0-.161-1.671,6.091,6.091,0,0,0-.517-1.595,3.609,3.609,0,0,0-.924-1.2,2.133,2.133,0,0,0-1.41-.474,2.345,2.345,0,0,0-1.84.786A3.727,3.727,0,0,0,93.3,30.141Z"/><path class="cls-1" d="M118.156,34.171a.524.524,0,0,0,.387.485,4.245,4.245,0,0,0,.861.248.233.233,0,0,1,.193.258,1.888,1.888,0,0,1-.042.345c-.374-.029-.739-.054-1.1-.075s-.746-.033-1.162-.033c-.388,0-.771.011-1.151.033s-.757.046-1.13.075a1.818,1.818,0,0,1-.043-.345.234.234,0,0,1,.194-.258,3.82,3.82,0,0,0,.817-.248.52.52,0,0,0,.366-.485V29.947a7.058,7.058,0,0,0-.064-.992,2.325,2.325,0,0,0-.246-.787,1.321,1.321,0,0,0-.493-.517,1.567,1.567,0,0,0-.8-.183,3.1,3.1,0,0,0-1.049.183,2.729,2.729,0,0,0-.911.539,2.606,2.606,0,0,0-.631.873,2.832,2.832,0,0,0-.236,1.185v3.923a.523.523,0,0,0,.377.485,4.148,4.148,0,0,0,.807.248.233.233,0,0,1,.193.258,1.818,1.818,0,0,1-.043.345q-.559-.043-1.1-.075T111,35.4q-.632,0-1.193.033t-1.1.075a1.754,1.754,0,0,1-.044-.345.234.234,0,0,1,.194-.258,4.235,4.235,0,0,0,.86-.248.536.536,0,0,0,.388-.507V28.287a1.494,1.494,0,0,0-.226-.927,1.417,1.417,0,0,0-.979-.345.284.284,0,0,1-.28-.3,1.2,1.2,0,0,1,.043-.28c.186,0,.448-.01.786-.032s.613-.047.83-.076q.5-.085.892-.183a2.742,2.742,0,0,1,.566-.1q.3,0,.305.324a4.872,4.872,0,0,1-.065.722,7.61,7.61,0,0,0-.065,1.11,9.352,9.352,0,0,1,1.77-1.595,3.289,3.289,0,0,1,1.855-.561,2.436,2.436,0,0,1,1.961.766,3.163,3.163,0,0,1,.655,2.122Z"/><path class="cls-1" d="M32.2,57.907a1.932,1.932,0,0,0,.043.442.64.64,0,0,0,.172.313.9.9,0,0,0,.355.2,3.027,3.027,0,0,0,.592.118c.186.029.279.123.279.28a1.3,1.3,0,0,1-.042.3q-.281,0-.743.032t-.786.076c-.319.057-.6.118-.838.183a2.3,2.3,0,0,1-.534.1c-.2,0-.305-.108-.305-.323V57.994q-.3.41-.6.787a3.664,3.664,0,0,1-.7.668,3.314,3.314,0,0,1-.914.463,3.965,3.965,0,0,1-1.248.173,3.357,3.357,0,0,1-1.4-.3,3.438,3.438,0,0,1-1.183-.9,4.523,4.523,0,0,1-.829-1.455,5.736,5.736,0,0,1-.311-1.961,4.833,4.833,0,0,1,.451-2.123,5.351,5.351,0,0,1,1.119-1.573,4.859,4.859,0,0,1,1.453-.97,3.726,3.726,0,0,1,1.452-.334,5.957,5.957,0,0,1,1.453.161,9.3,9.3,0,0,1,1.259.421V46.98a1.436,1.436,0,0,0-.227-.916,1.456,1.456,0,0,0-.979-.334.284.284,0,0,1-.28-.3,1.249,1.249,0,0,1,.043-.3c.186,0,.449-.011.786-.033s.614-.046.83-.075a6.353,6.353,0,0,0,.893-.173,2.47,2.47,0,0,1,.565-.107c.2,0,.3.107.3.323a6.321,6.321,0,0,1-.065.841,9.017,9.017,0,0,0-.064,1.163Zm-1.807-5.452a4.334,4.334,0,0,0-1.184-.884,3.216,3.216,0,0,0-1.464-.323,2.073,2.073,0,0,0-1.883,1.034,5.012,5.012,0,0,0-.634,2.651,6.472,6.472,0,0,0,.183,1.563,4.374,4.374,0,0,0,.538,1.3,2.806,2.806,0,0,0,.86.883,2.054,2.054,0,0,0,1.131.324,1.654,1.654,0,0,0,.86-.259,3.376,3.376,0,0,0,.786-.657,3.488,3.488,0,0,0,.58-.906,2.436,2.436,0,0,0,.227-1Z"/><path class="cls-1" d="M47.805,57.821a.45.45,0,0,1,.321-.15q.215,0,.408.366a6.361,6.361,0,0,1-.645.754,4.153,4.153,0,0,1-.872.658,4.782,4.782,0,0,1-1.151.463,5.774,5.774,0,0,1-1.485.173,4.762,4.762,0,0,1-1.635-.281,3.734,3.734,0,0,1-1.367-.862,4.276,4.276,0,0,1-.947-1.444,5.289,5.289,0,0,1-.355-2.026,4.85,4.85,0,0,1,.42-2.026,5.22,5.22,0,0,1,1.087-1.584,5.087,5.087,0,0,1,1.474-1.024,3.764,3.764,0,0,1,1.559-.366,3.481,3.481,0,0,1,2.916,1.164,4.773,4.773,0,0,1,.915,3.039.114.114,0,0,1-.129.129l-6.219.28a4.909,4.909,0,0,0,.235,1.552A3.79,3.79,0,0,0,43,57.865a3.046,3.046,0,0,0,1.04.808,3.183,3.183,0,0,0,1.384.291,2.857,2.857,0,0,0,1.319-.324A3.471,3.471,0,0,0,47.805,57.821Zm-3.478-6.573a1.934,1.934,0,0,0-1.67.84,3.7,3.7,0,0,0-.6,2.2l4.047-.194q.321,0,.321-.28a3.154,3.154,0,0,0-.129-.863,2.8,2.8,0,0,0-.385-.829,2.193,2.193,0,0,0-.653-.626A1.73,1.73,0,0,0,44.327,51.248Z"/><path class="cls-1" d="M68.653,53.748v4.418a.714.714,0,0,0,.473.7,5.749,5.749,0,0,0,1.42.334c.173.029.258.151.258.366a1.952,1.952,0,0,1-.042.366q-.626-.042-1.42-.075t-1.722-.032q-.56,0-1.27.032t-1.334.075a1.819,1.819,0,0,1-.043-.344c0-.2.071-.316.215-.345a4.65,4.65,0,0,0,1.152-.334.62.62,0,0,0,.29-.593V47.347a.672.672,0,0,0-.333-.626,3.476,3.476,0,0,0-1.194-.3c-.144-.029-.215-.158-.215-.388a1.365,1.365,0,0,1,.042-.323q.6.042,1.28.075t1.281.032h3.034a4.905,4.905,0,0,1,3.486,1.1,3.741,3.741,0,0,1,1.162,2.846,3.464,3.464,0,0,1-.312,1.4,4.02,4.02,0,0,1-.9,1.283,4.688,4.688,0,0,1-1.463.937,5.026,5.026,0,0,1-1.969.367Zm1.14-.884a3.586,3.586,0,0,0,2.325-.668,2.768,2.768,0,0,0,.817-2.263,5.044,5.044,0,0,0-.15-1.25,2.632,2.632,0,0,0-.517-1.024,2.521,2.521,0,0,0-.969-.7,3.818,3.818,0,0,0-1.506-.259h-1.14v6.164Z"/><path class="cls-1" d="M90.709,59.244c.158,0,.243.151.258.453a2.442,2.442,0,0,1-1.42.388,2.195,2.195,0,0,1-.825-.141,1.744,1.744,0,0,1-.588-.377,1.677,1.677,0,0,1-.371-.539,2.317,2.317,0,0,1-.174-.625,3.012,3.012,0,0,1-1.28,1.326,3.92,3.92,0,0,1-1.711.356,5.99,5.99,0,0,1-.915-.076,2.8,2.8,0,0,1-.914-.312,1.969,1.969,0,0,1-.711-.669,2.074,2.074,0,0,1-.28-1.142,2.327,2.327,0,0,1,.377-1.347,3.079,3.079,0,0,1,.969-.905,5.792,5.792,0,0,1,1.291-.571q.7-.216,1.345-.367c.243-.043.47-.089.677-.14a5.234,5.234,0,0,0,.549-.161.575.575,0,0,0,.377-.238,1.512,1.512,0,0,0,.075-.582,3.255,3.255,0,0,0-.387-1.67,1.465,1.465,0,0,0-1.377-.657,1.992,1.992,0,0,0-.624.086,1.034,1.034,0,0,0-.431.269,1.656,1.656,0,0,0-.3.485c-.087.2-.172.439-.259.711a.512.512,0,0,1-.29.345,5.08,5.08,0,0,1-.764.259,3.006,3.006,0,0,1-.323.086,1.513,1.513,0,0,1-.322.043c-.144,0-.215-.151-.215-.452a1.552,1.552,0,0,1,.365-.949,3.691,3.691,0,0,1,.936-.84,5.667,5.667,0,0,1,1.237-.593,3.955,3.955,0,0,1,1.27-.226,6.549,6.549,0,0,1,1.359.129,2.5,2.5,0,0,1,1.041.474,2.167,2.167,0,0,1,.664.927,4.2,4.2,0,0,1,.228,1.509v3.707a7.647,7.647,0,0,0,.054,1.088,1.633,1.633,0,0,0,.162.528.86.86,0,0,0,.333.4.793.793,0,0,0,.377.1.893.893,0,0,0,.333-.043A.5.5,0,0,1,90.709,59.244Zm-3.271-4.2-.693.108q-.561.108-1.093.258a3.411,3.411,0,0,0-.941.421,2.12,2.12,0,0,0-.661.679A1.918,1.918,0,0,0,83.8,57.52a1.713,1.713,0,0,0,.423,1.25,1.41,1.41,0,0,0,1.049.431,1.921,1.921,0,0,0,.812-.184,2.007,2.007,0,0,0,.692-.517,2.713,2.713,0,0,0,.477-.787,2.594,2.594,0,0,0,.184-.991Z"/><path class="cls-1" d="M99.263,59.826c-.247,0-.5,0-.751.011s-.486.017-.7.032-.4.029-.56.043-.259.021-.3.021a1.515,1.515,0,0,0-.022-.15,1.2,1.2,0,0,1-.021-.194.235.235,0,0,1,.193-.259,4.33,4.33,0,0,0,.9-.259.511.511,0,0,0,.344-.495V52.713a1.491,1.491,0,0,0-.225-.926,1.416,1.416,0,0,0-.979-.345.285.285,0,0,1-.28-.3,1.194,1.194,0,0,1,.043-.28q.279,0,.785-.033t.831-.075c.333-.057.63-.119.891-.183a2.68,2.68,0,0,1,.567-.1c.2,0,.3.107.3.323a4.729,4.729,0,0,1-.065.722,7.642,7.642,0,0,0-.064,1.11v5.949a.51.51,0,0,0,.333.495,4.112,4.112,0,0,0,.937.259.232.232,0,0,1,.172.259c0,.043,0,.108-.011.194a.305.305,0,0,1-.033.15c-.043,0-.139-.007-.29-.021s-.333-.029-.548-.043-.45-.025-.7-.032S99.51,59.826,99.263,59.826ZM98,46.872a1.263,1.263,0,0,1,.355-.894,1.177,1.177,0,0,1,.893-.377,1.119,1.119,0,0,1,.861.377,1.28,1.28,0,0,1,.344.894,1.224,1.224,0,0,1-.344.906,1.167,1.167,0,0,1-.861.345,1.231,1.231,0,0,1-.893-.345A1.209,1.209,0,0,1,98,46.872Z"/><path class="cls-1" d="M117.327,58.6a.523.523,0,0,0,.387.485,4.138,4.138,0,0,0,.861.248.234.234,0,0,1,.194.259,1.905,1.905,0,0,1-.043.344c-.374-.028-.739-.053-1.1-.075s-.746-.032-1.161-.032c-.388,0-.771.011-1.152.032s-.756.047-1.129.075a1.819,1.819,0,0,1-.043-.344.234.234,0,0,1,.193-.259,3.693,3.693,0,0,0,.817-.248.519.519,0,0,0,.367-.485V54.373a7.061,7.061,0,0,0-.065-.992,2.3,2.3,0,0,0-.246-.786,1.328,1.328,0,0,0-.492-.518,1.584,1.584,0,0,0-.8-.183,3.131,3.131,0,0,0-1.049.183,2.741,2.741,0,0,0-.91.539,2.609,2.609,0,0,0-.632.873,2.834,2.834,0,0,0-.236,1.186V58.6a.522.522,0,0,0,.377.485,4.035,4.035,0,0,0,.807.248.234.234,0,0,1,.194.259,1.819,1.819,0,0,1-.043.344q-.559-.042-1.1-.075t-1.149-.032q-.631,0-1.193.032t-1.1.075a1.819,1.819,0,0,1-.043-.344.235.235,0,0,1,.193-.259,4.138,4.138,0,0,0,.861-.248.534.534,0,0,0,.387-.506V52.713a1.484,1.484,0,0,0-.226-.926,1.412,1.412,0,0,0-.979-.345.285.285,0,0,1-.279-.3,1.194,1.194,0,0,1,.043-.28q.279,0,.785-.033c.336-.021.614-.046.831-.075.333-.057.63-.119.891-.183a2.67,2.67,0,0,1,.567-.1c.2,0,.3.107.3.323a4.861,4.861,0,0,1-.065.722,7.62,7.62,0,0,0-.065,1.11,9.413,9.413,0,0,1,1.77-1.6,3.3,3.3,0,0,1,1.855-.56,2.439,2.439,0,0,1,1.962.765,3.166,3.166,0,0,1,.654,2.123Z"/><path class="cls-1" d="M28.8,151.986a1.364,1.364,0,0,1-.258.035.51.51,0,0,1-.327-.086.621.621,0,0,1-.155-.19,3.52,3.52,0,0,0-1.067-1.431,2.823,2.823,0,0,0-1.687-.449,2.671,2.671,0,0,0-.783.113,1.961,1.961,0,0,0-.645.327,1.606,1.606,0,0,0-.44.526,1.457,1.457,0,0,0-.164.689,1.6,1.6,0,0,0,.681,1.329,8.841,8.841,0,0,0,2,1.051,7.044,7.044,0,0,1,2.436,1.457,2.716,2.716,0,0,1,.783,1.974,3.932,3.932,0,0,1-.215,1.319,2.8,2.8,0,0,1-.672,1.069,3.1,3.1,0,0,1-1.179.716,5.187,5.187,0,0,1-1.738.259,7.783,7.783,0,0,1-1.937-.224,5.516,5.516,0,0,1-1.471-.586q-.053-.724-.155-1.4t-.242-1.346a.769.769,0,0,1,.293-.051.482.482,0,0,1,.319.095.786.786,0,0,1,.2.3,4.163,4.163,0,0,0,1.111,1.827,2.82,2.82,0,0,0,1.9.587,2.745,2.745,0,0,0,.964-.155,1.913,1.913,0,0,0,.689-.432,1.84,1.84,0,0,0,.413-.621,1.988,1.988,0,0,0,.137-.741,1.757,1.757,0,0,0-.611-1.414,5.772,5.772,0,0,0-1.747-.931,13.673,13.673,0,0,1-1.342-.578,4.436,4.436,0,0,1-1.034-.7,2.772,2.772,0,0,1-.662-.922,3.343,3.343,0,0,1,0-2.448,2.791,2.791,0,0,1,.671-.975,3.246,3.246,0,0,1,1.058-.655,3.823,3.823,0,0,1,1.395-.241,7.58,7.58,0,0,1,1.55.155,10.623,10.623,0,0,1,1.669.517q.036.517.095,1.112T28.8,151.986Z"/><path class="cls-1" d="M35.088,160.487q-.3,0-.6.008c-.2.006-.389.014-.562.027s-.321.022-.447.033-.207.018-.242.018a1.134,1.134,0,0,0-.017-.121,1.044,1.044,0,0,1-.016-.155.188.188,0,0,1,.155-.207,3.492,3.492,0,0,0,.722-.206.412.412,0,0,0,.275-.4V154.8a1.2,1.2,0,0,0-.18-.741,1.131,1.131,0,0,0-.784-.275.227.227,0,0,1-.223-.242.924.924,0,0,1,.035-.224c.148,0,.358-.009.627-.025s.491-.038.665-.062q.4-.068.713-.146a2.129,2.129,0,0,1,.453-.077c.163,0,.244.086.244.258a3.938,3.938,0,0,1-.051.578,6.014,6.014,0,0,0-.052.888v4.759a.41.41,0,0,0,.267.4,3.259,3.259,0,0,0,.749.206.186.186,0,0,1,.137.207c0,.035,0,.087-.009.155a.26.26,0,0,1-.025.121c-.035,0-.113-.006-.233-.018s-.267-.022-.439-.033-.36-.021-.562-.027S35.285,160.487,35.088,160.487Zm-1.007-10.363a1,1,0,0,1,.285-.715.934.934,0,0,1,.714-.3.891.891,0,0,1,.688.3,1.023,1.023,0,0,1,.276.715.981.981,0,0,1-.276.725.936.936,0,0,1-.688.275.984.984,0,0,1-.714-.275A.964.964,0,0,1,34.081,150.124Z"/><path class="cls-1" d="M47.972,159.5a.421.421,0,0,0,.31.388,3.293,3.293,0,0,0,.689.2.188.188,0,0,1,.155.207,1.393,1.393,0,0,1-.035.276c-.3-.023-.591-.043-.877-.06s-.6-.026-.93-.026c-.31,0-.617.008-.921.026s-.6.037-.9.06a1.562,1.562,0,0,1-.035-.276.188.188,0,0,1,.155-.207,2.959,2.959,0,0,0,.655-.2.416.416,0,0,0,.292-.388v-3.379a5.875,5.875,0,0,0-.05-.794,1.868,1.868,0,0,0-.2-.629,1.055,1.055,0,0,0-.394-.414,1.25,1.25,0,0,0-.642-.146,2.476,2.476,0,0,0-.84.146,2.182,2.182,0,0,0-.728.431,2.106,2.106,0,0,0-.505.7,2.268,2.268,0,0,0-.188.949V159.5a.416.416,0,0,0,.3.388,3.218,3.218,0,0,0,.646.2.188.188,0,0,1,.155.207,1.458,1.458,0,0,1-.034.276q-.448-.035-.88-.06c-.288-.018-.594-.026-.919-.026s-.656.008-.955.026-.592.037-.879.06a1.458,1.458,0,0,1-.034-.276.188.188,0,0,1,.155-.207,3.311,3.311,0,0,0,.689-.2.429.429,0,0,0,.309-.405V154.8a1.2,1.2,0,0,0-.18-.741,1.135,1.135,0,0,0-.784-.275.228.228,0,0,1-.224-.242.977.977,0,0,1,.035-.224c.149,0,.358-.009.628-.025s.491-.038.665-.062c.267-.045.5-.094.713-.146A2.129,2.129,0,0,1,42.84,153q.243,0,.243.258a3.938,3.938,0,0,1-.051.578,6.177,6.177,0,0,0-.051.888,7.466,7.466,0,0,1,1.415-1.276A2.631,2.631,0,0,1,45.88,153a1.954,1.954,0,0,1,1.569.611,2.535,2.535,0,0,1,.523,1.7Z"/><path class="cls-1" d="M56.064,153.659a1.555,1.555,0,0,0-1.317.707,3.225,3.225,0,0,0-.508,1.914,4.046,4.046,0,0,0,.749,2.6,2.422,2.422,0,0,0,1.988.931,2.173,2.173,0,0,0,.921-.172,5.837,5.837,0,0,0,.646-.345l.12-.078a.271.271,0,0,1,.138-.043.277.277,0,0,1,.189.121,1.107,1.107,0,0,1,.139.19,3.126,3.126,0,0,1-.431.414,3.593,3.593,0,0,1-.62.388,3.838,3.838,0,0,1-.852.293,5.045,5.045,0,0,1-1.11.112,3.811,3.811,0,0,1-1.334-.233,3.075,3.075,0,0,1-1.1-.7,3.3,3.3,0,0,1-.749-1.165,4.432,4.432,0,0,1-.276-1.629,3.823,3.823,0,0,1,.336-1.612,4.184,4.184,0,0,1,.86-1.25,4.046,4.046,0,0,1,1.171-.81A3.055,3.055,0,0,1,56.288,153a4.472,4.472,0,0,1,1.153.138,3.244,3.244,0,0,1,.878.362,1.777,1.777,0,0,1,.56.526,1.136,1.136,0,0,1,.2.629c0,.069-.058.126-.173.172a2.135,2.135,0,0,1-.387.112A3.62,3.62,0,0,1,58.1,155c-.132.011-.21.017-.233.017a.4.4,0,0,1-.353-.215c-.085-.144-.18-.3-.283-.466a1.919,1.919,0,0,0-.422-.465A1.162,1.162,0,0,0,56.064,153.659Z"/><path class="cls-1" d="M68.821,158.883a.363.363,0,0,1,.258-.12q.171,0,.326.293a5.006,5.006,0,0,1-.516.6,3.325,3.325,0,0,1-.7.526,3.8,3.8,0,0,1-.922.37,4.611,4.611,0,0,1-1.187.139,3.826,3.826,0,0,1-1.309-.224,3,3,0,0,1-1.093-.69,3.44,3.44,0,0,1-.757-1.155A4.23,4.23,0,0,1,62.639,157a3.87,3.87,0,0,1,.337-1.621,4.163,4.163,0,0,1,.869-1.267,4.037,4.037,0,0,1,1.179-.819A3.015,3.015,0,0,1,66.272,153a2.781,2.781,0,0,1,2.332.931,3.819,3.819,0,0,1,.732,2.431.091.091,0,0,1-.1.1l-4.975.223a3.921,3.921,0,0,0,.188,1.242,2.98,2.98,0,0,0,.533.983,2.4,2.4,0,0,0,.832.646,2.543,2.543,0,0,0,1.106.233,2.3,2.3,0,0,0,1.056-.258A2.772,2.772,0,0,0,68.821,158.883Zm-2.782-5.259a1.548,1.548,0,0,0-1.336.673,2.958,2.958,0,0,0-.48,1.758l3.238-.155c.171,0,.257-.074.257-.224a2.555,2.555,0,0,0-.1-.69,2.283,2.283,0,0,0-.308-.663,1.735,1.735,0,0,0-.523-.5A1.375,1.375,0,0,0,66.039,153.624Z"/><path class="cls-1" d="M79.821,154.3a1.215,1.215,0,0,1-.095.078.22.22,0,0,1-.13.043.441.441,0,0,1-.361-.225,6,6,0,0,1,1.489-1.387,3.226,3.226,0,0,1,1.782-.526,2.378,2.378,0,0,1,1.782.611,2.2,2.2,0,0,1,.594,1.595,2.88,2.88,0,0,1-.2,1.035,4.065,4.065,0,0,1-.662,1.087,10.526,10.526,0,0,1-1.24,1.241q-.774.672-1.928,1.517h2.91a1.058,1.058,0,0,0,.576-.147,1.256,1.256,0,0,0,.421-.594.288.288,0,0,1,.277-.19.9.9,0,0,1,.188.035.348.348,0,0,0,.1.017q-.156.447-.284.931c-.086.322-.163.632-.233.931a.31.31,0,0,1-.085.173.338.338,0,0,1-.172.033q-.311,0-.775-.033c-.311-.024-.649-.035-1.016-.035H79.235v-.414q1.067-.9,1.816-1.612a11.482,11.482,0,0,0,1.214-1.328,5.08,5.08,0,0,0,.679-1.146,2.8,2.8,0,0,0,.215-1.052,1.92,1.92,0,0,0-.3-1.078,1.156,1.156,0,0,0-1.042-.457,2.345,2.345,0,0,0-.964.207A4.442,4.442,0,0,0,79.821,154.3Z"/><path class="cls-1" d="M93.143,160.694a4.34,4.34,0,0,1-1.652-.3,3.517,3.517,0,0,1-1.256-.853,3.862,3.862,0,0,1-.8-1.319,4.853,4.853,0,0,1-.284-1.7,4.528,4.528,0,0,1,.3-1.655,4.112,4.112,0,0,1,.835-1.345,3.986,3.986,0,0,1,1.265-.9,3.753,3.753,0,0,1,1.592-.336,3.955,3.955,0,0,1,1.593.318,3.875,3.875,0,0,1,1.265.879,4.035,4.035,0,0,1,.835,1.337,4.673,4.673,0,0,1,.3,1.707,4.618,4.618,0,0,1-.284,1.638,4.059,4.059,0,0,1-.8,1.328,3.6,3.6,0,0,1-1.257.888A4.144,4.144,0,0,1,93.143,160.694Zm-2.289-4.173a5.413,5.413,0,0,0,.181,1.491,3.3,3.3,0,0,0,.5,1.061,1.977,1.977,0,0,0,1.644.845,1.842,1.842,0,0,0,.852-.207,2.068,2.068,0,0,0,.714-.621,3.206,3.206,0,0,0,.492-1.051,5.637,5.637,0,0,0,.18-1.518,5.833,5.833,0,0,0-.18-1.535,3.31,3.31,0,0,0-.492-1.077,2.1,2.1,0,0,0-.722-.638,1.873,1.873,0,0,0-.879-.215,1.93,1.93,0,0,0-.877.206,2.1,2.1,0,0,0-.732.63,3.175,3.175,0,0,0-.5,1.077A5.865,5.865,0,0,0,90.854,156.521Z"/><path class="cls-1" d="M104.815,160.694a4.344,4.344,0,0,1-1.652-.3,3.517,3.517,0,0,1-1.256-.853,3.862,3.862,0,0,1-.8-1.319,4.876,4.876,0,0,1-.284-1.7,4.528,4.528,0,0,1,.3-1.655,4.112,4.112,0,0,1,.835-1.345,4,4,0,0,1,1.265-.9,3.756,3.756,0,0,1,1.592-.336,3.955,3.955,0,0,1,1.593.318,3.875,3.875,0,0,1,1.265.879,4.053,4.053,0,0,1,.836,1.337,4.694,4.694,0,0,1,.3,1.707,4.618,4.618,0,0,1-.284,1.638,4.042,4.042,0,0,1-.8,1.328,3.6,3.6,0,0,1-1.257.888A4.144,4.144,0,0,1,104.815,160.694Zm-2.289-4.173a5.413,5.413,0,0,0,.181,1.491,3.3,3.3,0,0,0,.5,1.061,1.977,1.977,0,0,0,1.644.845,1.842,1.842,0,0,0,.852-.207,2.059,2.059,0,0,0,.714-.621,3.206,3.206,0,0,0,.492-1.051,5.637,5.637,0,0,0,.18-1.518,5.833,5.833,0,0,0-.18-1.535,3.31,3.31,0,0,0-.492-1.077,2.092,2.092,0,0,0-.722-.638,1.87,1.87,0,0,0-.879-.215,1.93,1.93,0,0,0-.877.206,2.1,2.1,0,0,0-.732.63,3.175,3.175,0,0,0-.5,1.077A5.865,5.865,0,0,0,102.526,156.521Z"/><path class="cls-1" d="M116.487,160.694a4.346,4.346,0,0,1-1.653-.3,3.517,3.517,0,0,1-1.256-.853,3.844,3.844,0,0,1-.8-1.319,4.853,4.853,0,0,1-.285-1.7,4.528,4.528,0,0,1,.3-1.655,4.115,4.115,0,0,1,.836-1.345,3.993,3.993,0,0,1,1.264-.9,3.76,3.76,0,0,1,1.593-.336,3.95,3.95,0,0,1,1.592.318,3.865,3.865,0,0,1,1.265.879,4.021,4.021,0,0,1,.836,1.337,4.694,4.694,0,0,1,.3,1.707,4.64,4.64,0,0,1-.283,1.638,4.062,4.062,0,0,1-.8,1.328,3.6,3.6,0,0,1-1.257.888A4.142,4.142,0,0,1,116.487,160.694Zm-2.29-4.173a5.413,5.413,0,0,0,.181,1.491,3.325,3.325,0,0,0,.5,1.061,2.053,2.053,0,0,0,.741.638,2.018,2.018,0,0,0,.9.207,1.842,1.842,0,0,0,.852-.207,2.059,2.059,0,0,0,.714-.621,3.186,3.186,0,0,0,.492-1.051,5.637,5.637,0,0,0,.18-1.518,5.833,5.833,0,0,0-.18-1.535,3.289,3.289,0,0,0-.492-1.077,2.092,2.092,0,0,0-.722-.638,1.866,1.866,0,0,0-.878-.215,1.931,1.931,0,0,0-.878.206,2.1,2.1,0,0,0-.732.63,3.194,3.194,0,0,0-.5,1.077A5.865,5.865,0,0,0,114.2,156.521Z"/><path class="cls-1" d="M21.18,191.15a12.5,12.5,0,0,0,2.411-2.771,5.124,5.124,0,0,0,.941-2.023c0-.265-.218-.5-.7-.735a.756.756,0,0,1,.344-.092,2.433,2.433,0,0,1,1.286.5c.482.322.711.586.711.817a.472.472,0,0,1-.218.367,1.919,1.919,0,0,0-.413.437,10.544,10.544,0,0,1-4.305,3.586Zm6.313-5.575a9.5,9.5,0,0,1,2.985,2.092,2.616,2.616,0,0,1,.965,1.862c0,.712-.322,1.252-.735,1.252-.264,0-.344-.1-.516-.632a9.862,9.862,0,0,0-2.8-4.471Zm3.812-1.092a1.233,1.233,0,0,1-1.228,1.241,1.242,1.242,0,1,1-.012-2.483A1.236,1.236,0,0,1,31.305,184.483Zm-2.066,0a.832.832,0,1,0,.826-.839A.824.824,0,0,0,29.239,184.483Z"/><path class="cls-1" d="M36.5,184.207a6.465,6.465,0,0,1,2.514.747,1.078,1.078,0,0,1,.563.988c0,.54-.264.955-.62.955-.2,0-.31-.093-.482-.391a5.387,5.387,0,0,0-2.032-2.172Zm8.725.667a12.269,12.269,0,0,1-2.583,3.562,18.485,18.485,0,0,1-3.329,2.622,2.594,2.594,0,0,0-.62.5.63.63,0,0,1-.482.287c-.3,0-.723-.322-1.125-.839a2.2,2.2,0,0,1-.551-1.275.891.891,0,0,1,.057-.311c.31.529.689.851,1,.851a10.074,10.074,0,0,0,3.352-1.77,22.551,22.551,0,0,0,4.144-3.7Z"/><path class="cls-1" d="M53.637,192.1a5.939,5.939,0,0,0,2.778-1.632,4.275,4.275,0,0,0,1.148-3.023A2.9,2.9,0,0,0,54.4,184.31a3.417,3.417,0,0,0-.459.024,1.706,1.706,0,0,1,.528,1.229,9.323,9.323,0,0,1-1.412,3.92c-.746,1.241-1.412,1.873-1.986,1.873a.755.755,0,0,1-.619-.333,2.826,2.826,0,0,1-.264-.758,2,2,0,0,0-.494-.852,2.2,2.2,0,0,1-.448-1.321,3.8,3.8,0,0,1,.964-2.3,5.7,5.7,0,0,1,4.328-1.885c2.56,0,4.385,1.621,4.385,3.9a4.05,4.05,0,0,1-2.583,3.77,8.513,8.513,0,0,1-2.652.69Zm-2.146-6.54a3.921,3.921,0,0,0-1.228,2.735c0,.794.39,1.61.78,1.61s1.137-.954,1.883-2.368a6.83,6.83,0,0,0,.918-2.54,1.312,1.312,0,0,0-.046-.38,1.162,1.162,0,0,0-.091-.253A4.172,4.172,0,0,0,51.491,185.563Z"/><path class="cls-1" d="M67.237,187.276a14.273,14.273,0,0,0-.688,2.045,5.034,5.034,0,0,0-.15.966,1.816,1.816,0,0,0,.161.7.894.894,0,0,1,.035.253.538.538,0,0,1-.552.552,2.192,2.192,0,0,1-1.515-1.1,6.558,6.558,0,0,1-.861-3.632c0-.08,0-.08.023-1.091v-.185a2.288,2.288,0,0,0-.677-1.9,1.31,1.31,0,0,1,.78.276,2.916,2.916,0,0,1,1.183,1.184.891.891,0,0,1,.1.448,1.774,1.774,0,0,1-.081.425,6.453,6.453,0,0,0-.251,1.7,4.614,4.614,0,0,0,.229,1.46,1.142,1.142,0,0,0,.447.643c.747-1.288,1.194-2.035,1.7-2.805Zm2.182-2.081a3.6,3.6,0,0,1,2.376,1.333,3.558,3.558,0,0,1,.8,2.3c0,.782-.39,1.333-.953,1.333a.545.545,0,0,1-.459-.24c-.275-.311-.517-.357-1.756-.38l-.024-.115c1.011-.3,1.447-.436,1.63-.517.207-.092.242-.138.242-.368a4.458,4.458,0,0,0-.367-1.655,2.965,2.965,0,0,0-1.538-1.563Z"/><path class="cls-1" d="M79,186.541a8.231,8.231,0,0,0,2.009-.507,4.289,4.289,0,0,0,1.137-.413c.137-.1.183-.115.275-.115a1.014,1.014,0,0,1,.585.287,1.486,1.486,0,0,1,.654.919c0,.15-.1.253-.332.369-.551.241-.9.54-3.054,2.6a2.732,2.732,0,0,1,1.286-.414,1.179,1.179,0,0,1,.792.265,1.683,1.683,0,0,1,.528,1.022c.206.748.356.9.964.9a2.626,2.626,0,0,0,1.252-.23.535.535,0,0,1,.183-.035,1.1,1.1,0,0,1,.551.253.983.983,0,0,1,.482.678c0,.4-.436.553-1.572.553a3.275,3.275,0,0,1-2.239-.518,1.7,1.7,0,0,1-.539-.931c-.023-.149-.023-.149-.115-.885a.919.919,0,0,0-.287-.6.52.52,0,0,0-.3-.07c-.712,0-1.608.771-2.721,2.334-.391.551-.5.655-.7.655-.3,0-.6-.563-.6-1.115a.522.522,0,0,1,.184-.425,3.466,3.466,0,0,1,.482-.38,29.47,29.47,0,0,0,3.742-3.77c.321-.378.459-.574.459-.655,0-.034-.046-.068-.115-.068a8.637,8.637,0,0,0-2.342,1.08c-.482.287-.55.31-.723.31a.564.564,0,0,1-.459-.241,2.188,2.188,0,0,1-.436-1.195.844.844,0,0,1,.195-.54C78.449,186.345,78.633,186.541,79,186.541Zm.861-4.012a2.425,2.425,0,0,0,1.079.575,4.144,4.144,0,0,0,1.1.161,3.494,3.494,0,0,0,.39-.024h.081a1.187,1.187,0,0,1,1.067.966.44.44,0,0,1-.47.448,1.6,1.6,0,0,1-.218-.011c-.264-.024-.391-.035-.563-.035a10.487,10.487,0,0,0-1.309.1c-.126.012-.126.012-.849.127-.241.035-.264.035-.528.069l-.035-.115c1.5-.575,1.642-.632,1.906-.724a2.774,2.774,0,0,1-1.148-.655,2.515,2.515,0,0,1-.6-.816Z"/><path class="cls-1" d="M97.787,192.92a12.344,12.344,0,0,0,2.32-2.185,17.87,17.87,0,0,0,2.858-4.769,2.953,2.953,0,0,0,.218-.714c0-.092-.058-.125-.207-.125a12.678,12.678,0,0,0-2.445.47,8.567,8.567,0,0,0-1.825.667.827.827,0,0,1-.391.1c-.344,0-.735-.31-1.078-.862a1.588,1.588,0,0,1-.322-.816.759.759,0,0,1,.069-.3,1.217,1.217,0,0,0,1.217.758,31.28,31.28,0,0,0,3.708-.5,3.082,3.082,0,0,0,1.251-.345.74.74,0,0,1,.253-.069,1.8,1.8,0,0,1,.849.506c.39.356.608.655.608.861a.536.536,0,0,1-.207.415,2.275,2.275,0,0,0-.482.712c-1.71,3.3-3.662,5.252-6.313,6.31Zm6.13-10.058a4.382,4.382,0,0,1,1.229.552c.528.356.769.689.769,1.057,0,.265-.138.449-.356.449-.149,0-.241-.07-.39-.334a5.055,5.055,0,0,0-1.355-1.528Zm1.171-.793a3.976,3.976,0,0,1,1.343.506c.46.3.666.563.666.885,0,.275-.138.459-.344.459-.126,0-.207-.068-.379-.31A5,5,0,0,0,105,182.253Z"/><path class="cls-1" d="M119.858,186.587a11.065,11.065,0,0,1-2.422,2.907,16.761,16.761,0,0,1-3.339,2.138,1.523,1.523,0,0,0-.563.4.5.5,0,0,1-.345.172c-.355,0-1.079-.92-1.079-1.38,0-.08,0-.08.069-.276a5.056,5.056,0,0,0,.115-1.758c0-1.23-.046-3.2-.08-3.712-.057-.793-.264-1.07-.976-1.288a.772.772,0,0,1,.482-.149,3.145,3.145,0,0,1,1.354.413c.482.242.7.483.7.771a.612.612,0,0,1-.068.287,2.808,2.808,0,0,0-.183.8c-.1.9-.219,3.16-.219,4.183v.391a16.476,16.476,0,0,0,3.88-1.908,14.782,14.782,0,0,0,2.56-2.08Z"/><path class="cls-1" d="M22.453,82.334q0-1.422.678-1.681a4.05,4.05,0,0,1,1.453-.259h3.97q1.774,0,3.227-.032a25.643,25.643,0,0,0,2.712-.194,11.412,11.412,0,0,0,2.356-.549q.516-.195.548.194c.022.258.033.5.033.711a.686.686,0,0,1-.388.614,3.442,3.442,0,0,1-.871.356,8.167,8.167,0,0,1-.935.194,5.533,5.533,0,0,1-.582.064,22.029,22.029,0,0,0-.452,2.942q-.258,2.3-.548,5.432t-.484,6.66q-.2,3.525-.194,6.627a22.809,22.809,0,0,1,1.936-1.81,25.171,25.171,0,0,1,3.2-2.3,23.4,23.4,0,0,1,4.1-1.972,13.427,13.427,0,0,1,4.712-.84,13.007,13.007,0,0,1,4.551.776,10.161,10.161,0,0,1,6.068,5.916,12.979,12.979,0,0,1,.872,4.881,13.829,13.829,0,0,1-.872,4.689,23.683,23.683,0,0,1-2.388,4.784,27.1,27.1,0,0,1-3.648,4.494,28.275,28.275,0,0,1-4.616,3.75,24.067,24.067,0,0,1-5.293,2.587,17.218,17.218,0,0,1-5.649.97,16.564,16.564,0,0,1-5.293-.711,12.293,12.293,0,0,1-3.293-1.617,6.923,6.923,0,0,1-1.743-1.713,7.062,7.062,0,0,1-.58-1,21.182,21.182,0,0,0,.452-3.136q.256-2.553.483-6.272t.42-8.179q.194-4.462.194-8.729,0-3.75-.13-6.3t-.354-4.2a14.294,14.294,0,0,0-.549-2.587,5.387,5.387,0,0,0-.71-1.454A2.4,2.4,0,0,0,23.163,82.4Zm10.394,26.187q-.131,1.1-.194,2.652t-.065,3.1q0,1.551.065,2.78a14.552,14.552,0,0,0,.129,1.552,6.05,6.05,0,0,0,.9,2.068,8.664,8.664,0,0,0,1.872,2.037,10.474,10.474,0,0,0,2.679,1.552,8.741,8.741,0,0,0,3.324.615,8.871,8.871,0,0,0,6.747-2.846q2.678-2.844,2.679-8.729a14.831,14.831,0,0,0-.937-5.593,10.784,10.784,0,0,0-2.356-3.686,9.2,9.2,0,0,0-3.066-2.036,8.3,8.3,0,0,0-3-.647,7.817,7.817,0,0,0-3.13.55,11.5,11.5,0,0,0-2.228,1.261,9.764,9.764,0,0,0-2.388,2.456A7.522,7.522,0,0,0,32.847,108.521Z"/><path class="cls-1" d="M90.171,122.229a.763.763,0,0,1,.387.647q0,.517-1.485,1.357-1.549.907-4.1,2.135a52.914,52.914,0,0,1-5.068,2.133q-1.227.453-2.2.776a5.586,5.586,0,0,1-1.742.324,7.649,7.649,0,0,1-2.228-.42,10.806,10.806,0,0,1-2.291-1q-.775-.517-1.227-.809c-.3-.193-.452-.4-.452-.613a.817.817,0,0,1,.162-.486,2.633,2.633,0,0,0,.29-.55,4.793,4.793,0,0,0,.129-.516,3.293,3.293,0,0,0,.064-.647q.2-1.615.42-4.688t.355-6.789q.129-3.718.226-7.695t.1-7.4q0-4.2-.032-6.79t-.162-4.137a9.913,9.913,0,0,0-.516-2.813,2.936,2.936,0,0,0-.71-1,2.093,2.093,0,0,0-.872-.485,5.993,5.993,0,0,0-.775-.13q-.356-.031-.58-.032c-.152,0-.226-.043-.226-.129q0-2.135,1.808-2.134,1.355,0,3.2.032t3.066.032a15.073,15.073,0,0,0,1.646-.1l1.711-.194q.839-.1,1.549-.227a5.78,5.78,0,0,0,1.033-.258.362.362,0,0,1,.42.194,1.426,1.426,0,0,1,.193.646,1.316,1.316,0,0,1-.128.711.664.664,0,0,1-.42.388,4.1,4.1,0,0,1-.678.065,3.506,3.506,0,0,0-1,.259q-.324.129-.582.808A10.353,10.353,0,0,0,79,84.823q-.192,1.457-.387,3.816t-.387,5.916q-.195,2.845-.291,5.787t-.194,5.722q-.1,2.781-.128,5.173t-.033,4.074q0,1.875.033,3.782a11.705,11.705,0,0,0,.355,3.007,3.852,3.852,0,0,0,1.678,1.94,5.031,5.031,0,0,0,2.841.9,9.292,9.292,0,0,0,2.388-.324,15.324,15.324,0,0,0,2.259-.775q1.032-.452,1.84-.905T90.171,122.229Z"/><path class="cls-1" d="M122.577,121.26q-.711.775-2.194,2.133a27.3,27.3,0,0,1-3.584,2.715,24.255,24.255,0,0,1-4.679,2.328,15.472,15.472,0,0,1-5.488.97,16.812,16.812,0,0,1-5.164-.808,13.506,13.506,0,0,1-4.519-2.457,11.836,11.836,0,0,1-3.195-4.2,14.293,14.293,0,0,1-1.2-6.11,28.073,28.073,0,0,1,.388-5.011,18.892,18.892,0,0,1,1.032-3.686,13.341,13.341,0,0,1,1.453-2.716,20.485,20.485,0,0,1,1.646-2.036,14.17,14.17,0,0,1,2.518-2.2,24.564,24.564,0,0,1,3.195-1.875,18.629,18.629,0,0,1,3.615-1.326,15.523,15.523,0,0,1,3.841-.484,10.744,10.744,0,0,1,5.455,1.164,3.593,3.593,0,0,1,1.969,3.232,4.059,4.059,0,0,1-.775,2.392,13.707,13.707,0,0,0,1.647-.646q1-.452,2.033-.938t1.84-.872a7.617,7.617,0,0,0,1.065-.582.311.311,0,0,1,.29-.1.2.2,0,0,1,.162.227,2.718,2.718,0,0,1-.322,1.39,2.8,2.8,0,0,1-.775.873q-1.033.647-2.97,1.617t-4.293,2.037q-2.356,1.066-4.874,2.133t-4.745,2.037q-2.226.971-3.872,1.714t-2.228,1.066a9.745,9.745,0,0,0,.872,4.107,10.243,10.243,0,0,0,2.42,3.329,11.241,11.241,0,0,0,3.712,2.232,13.45,13.45,0,0,0,4.745.808,16.769,16.769,0,0,0,4.2-.485,17.563,17.563,0,0,0,5.2-2.2,5.239,5.239,0,0,1,.807-.484.791.791,0,0,1,.516.225A.652.652,0,0,1,122.577,121.26Zm-22.723-9.894q1.1-.387,2.485-.937t2.711-1.2q1.323-.647,2.421-1.229a11.906,11.906,0,0,0,1.679-1.035,3.274,3.274,0,0,0,1.162-2.845,4.931,4.931,0,0,0-.291-1.616,4.66,4.66,0,0,0-.871-1.52,4.51,4.51,0,0,0-1.42-1.1,4.128,4.128,0,0,0-1.873-.42,3.823,3.823,0,0,0-1.936.614,6.183,6.183,0,0,0-1.936,2,12.906,12.906,0,0,0-1.517,3.686A21.906,21.906,0,0,0,99.854,111.366Zm15.88-25.411q0,.194-1.581,1.325T110.409,89.8q-2.165,1.391-4.358,2.715T102.63,94.49a.422.422,0,0,1-.452,0,2.4,2.4,0,0,1-.516-.355,2.173,2.173,0,0,1-.387-.421c-.088-.129-.088-.236,0-.323q1.03-.839,2.808-2.587t3.582-3.588q1.806-1.842,3.2-3.265t1.581-1.617q.2-.063.71.388t1.1,1.067a11.183,11.183,0,0,1,1.032,1.261A2.1,2.1,0,0,1,115.734,85.955Z"/><path class="cls-1" d="M122.139,174.7h-1.924v-.722h1.924Zm-4.81,0h-1.924v-.722h1.924Zm-4.81,0H110.6v-.722h1.924Zm-4.81,0h-1.925v-.722h1.925Zm-4.811,0h-1.924v-.722H102.9Zm-4.81,0H96.164v-.722h1.924Zm-4.81,0H91.354v-.722h1.924Zm-4.81,0H86.544v-.722h1.924Zm-4.81,0H81.734v-.722h1.924Zm-4.81,0H76.924v-.722h1.924Zm-4.81,0H72.114v-.722h1.924Zm-4.811,0H67.3v-.722h1.924Zm-4.81,0H62.493v-.722h1.924Zm-4.81,0H57.683v-.722h1.924Zm-4.81,0H52.873v-.722H54.8Zm-4.81,0H48.063v-.722h1.924Zm-4.81,0H43.253v-.722h1.924Zm-4.81,0H38.443v-.722h1.924Zm-4.811,0H33.632v-.722h1.924Zm-4.81,0H28.822v-.722h1.924Zm-4.81,0H24.012v-.722h1.924Zm-4.81,0H19.2v-.722h1.924Z"/><path class="cls-1" d="M132.224,206.929H9.508V8.5H132.224ZM10.23,206.208H131.5V9.225H10.23Z"/></svg>